<svg version="1.1" id="Layer_1" xmlns="http://www.w3.org/2000/svg" xmlns:xlink="http://www.w3.org/1999/xlink" x="0px" y="0px"
	 width="100%" viewBox="0 0 500 500" enable-background="new 0 0 500 500" xml:space="preserve">
<path fill="#0A7AA3" opacity="1.000000" stroke="none" 
	d="
M232.000000,501.000000 
	C154.666687,501.000000 77.833366,501.000000 1.000041,501.000000 
	C1.000027,334.333405 1.000027,167.666779 1.000014,1.000131 
	C167.666565,1.000087 334.333130,1.000087 500.999756,1.000044 
	C500.999847,167.666519 500.999847,334.333038 500.999939,500.999786 
	C411.500000,501.000000 322.000000,501.000000 232.000000,501.000000 
M131.499771,347.626495 
	C157.155136,347.626495 182.810501,347.633911 208.465851,347.612122 
	C210.457138,347.610443 212.471603,347.558502 214.434631,347.261292 
	C218.612717,346.628693 220.930359,344.027496 221.268875,339.874786 
	C221.617554,335.597351 219.930618,332.275299 215.669113,330.979736 
	C213.492706,330.318054 211.088501,330.191528 208.786758,330.188354 
	C174.635315,330.141205 140.483795,330.166229 106.332283,330.148163 
	C96.378983,330.142883 92.456543,326.247070 92.437691,316.218414 
	C92.393227,292.562347 92.493294,268.905731 92.369431,245.250229 
	C92.342369,240.082092 94.011024,236.090393 97.645073,232.359772 
	C115.428581,214.103806 133.026413,195.666809 150.666550,177.271423 
	C156.975555,170.692291 159.264633,170.625717 165.628510,177.218979 
	C185.642487,197.954391 205.611954,218.732819 225.648621,239.446259 
	C229.806503,243.744583 234.862183,244.160263 238.496017,240.789948 
	C242.197968,237.356445 242.049240,231.772980 238.054474,227.460236 
	C234.885345,224.038834 231.337067,220.921600 228.520340,217.238586 
	C226.858643,215.065826 225.447800,212.075546 225.380112,209.415894 
	C225.058121,196.763046 225.085526,184.094620 225.324387,171.438095 
	C225.399338,167.466782 224.016891,165.349854 220.398102,163.925140 
	C214.989975,161.796005 209.764053,159.207596 204.423569,156.900375 
	C203.184479,156.365051 201.795776,156.176010 199.852417,155.663055 
	C199.852417,161.439423 199.852417,166.414932 199.852417,171.390442 
	C199.852417,176.313721 199.852417,181.237000 199.852417,187.206619 
	C197.914978,185.360748 196.725403,184.307678 195.626511,183.167221 
	C189.038437,176.329910 182.584671,169.359024 175.871048,162.647827 
	C165.178925,151.959549 150.864044,151.993774 140.432709,162.763840 
	C121.194618,182.626633 102.063087,202.592697 82.908401,222.536148 
	C78.113045,227.528961 75.170494,233.548019 75.126266,240.441925 
	C74.955276,267.095367 74.828262,293.753510 75.159370,320.403992 
	C75.335258,334.560944 86.336761,346.095093 100.538429,347.166107 
	C110.480568,347.915894 120.509552,347.514008 131.499771,347.626495 
M176.499176,241.169495 
	C181.322632,241.169403 186.159531,241.376434 190.962769,241.064758 
	C192.819672,240.944275 195.702316,240.029053 196.131332,238.788803 
	C196.645432,237.302628 195.521408,234.646881 194.268661,233.248459 
	C184.837326,222.720383 175.243576,212.336227 165.607666,201.993668 
	C160.876038,196.915024 156.344391,196.971832 151.602158,202.097778 
	C142.115860,212.351608 132.634125,222.612305 123.351822,233.049225 
	C122.005615,234.562851 121.771507,237.065552 121.022789,239.110580 
	C123.047951,239.796738 125.067299,241.057465 127.099205,241.078049 
	C143.231308,241.241562 159.365784,241.169342 176.499176,241.169495 
M301.389008,285.895935 
	C301.389008,280.901123 301.389008,275.906311 301.389008,270.542969 
	C302.602356,271.034607 302.788147,271.050232 302.865295,271.149933 
	C304.592651,273.381897 306.282349,275.643463 308.031219,277.858276 
	C311.467224,282.209747 314.227356,282.243896 317.596436,277.932068 
	C319.559937,275.419128 321.414429,272.821014 324.177704,269.105072 
	C324.177704,275.452057 324.233246,280.237671 324.158722,285.021301 
	C324.106659,288.360260 324.605042,290.958832 328.871246,291.025146 
	C333.119965,291.091187 333.796021,288.518555 333.794098,285.181488 
	C333.789093,276.531006 333.955475,267.875427 333.683075,259.233582 
	C333.615143,257.079987 332.731781,253.928391 331.194214,253.062363 
	C328.184326,251.367065 325.263031,252.804153 323.118408,255.813950 
	C319.880463,260.358032 316.360504,264.701202 312.779144,269.365845 
	C308.944366,264.337219 305.818695,259.559631 301.948822,255.489624 
	C300.345612,253.803513 297.146088,253.058777 294.679993,253.074295 
	C293.786438,253.079910 292.208801,256.530609 292.152924,258.444672 
	C291.886169,267.586426 292.070435,276.740479 292.015289,285.889709 
	C291.998047,288.750122 292.704620,290.806458 296.032654,290.972107 
	C299.075195,291.123505 301.375061,290.433502 301.389008,285.895935 
M189.471664,252.871353 
	C183.228989,252.132996 182.246292,252.900177 182.216492,258.848877 
	C182.172302,267.668762 182.254425,276.489410 182.184341,285.308990 
	C182.156693,288.787872 182.979736,291.131195 187.152145,291.052307 
	C191.077942,290.978027 191.812607,288.683319 191.776382,285.466309 
	C191.723022,280.726746 191.762619,275.986084 191.762619,269.913605 
	C193.704117,272.192719 194.780838,273.340179 195.726196,274.587219 
	C199.243103,279.226471 202.436523,284.155579 206.351868,288.425171 
	C207.812912,290.018433 211.005280,290.825043 213.243347,290.566010 
	C214.358963,290.436890 215.832947,287.118073 215.890808,285.204163 
	C216.167236,276.059570 215.910110,266.900238 216.065536,257.749939 
	C216.125946,254.194046 214.853500,252.447250 211.227005,252.457840 
	C207.731308,252.468048 206.655609,254.351685 206.727371,257.563507 
	C206.839981,262.602631 206.757248,267.646118 206.757248,272.687775 
	C203.119980,269.745697 200.681992,266.475281 198.182388,263.252686 
	C195.542831,259.849701 192.844574,256.492249 189.471664,252.871353 
M250.277588,288.990540 
	C259.059723,283.495117 262.721405,275.462463 260.419891,266.741119 
	C258.086548,257.899170 250.497528,252.475479 240.152969,252.297928 
	C237.328339,252.249435 234.365982,251.784668 231.724731,252.484406 
	C229.986526,252.944885 227.478592,255.103531 227.425156,256.578186 
	C227.058258,266.703827 227.113800,276.853729 227.419754,286.984161 
	C227.460648,288.338440 229.701340,290.779480 230.880066,290.753510 
	C237.117035,290.615997 243.340149,289.850281 250.277588,288.990540 
M122.541748,253.025330 
	C122.008011,253.999512 121.021103,254.968658 121.010216,255.948654 
	C120.893852,266.424225 120.767303,276.907379 121.142448,287.370605 
	C121.187775,288.634918 124.118256,290.626251 125.813339,290.738098 
	C127.168327,290.827515 129.655487,288.752686 129.922485,287.318665 
	C130.541077,283.996246 130.119232,280.480072 130.119232,276.474274 
	C134.191223,276.474274 137.653748,276.506195 141.115402,276.465149 
	C144.477844,276.425262 145.166855,274.265411 145.120911,271.419220 
	C145.075821,268.625061 143.982101,266.997040 140.990585,267.019531 
	C137.519760,267.045654 134.048569,267.025635 130.383545,267.025635 
	C130.383545,265.185272 130.383545,263.774139 130.383545,261.882690 
	C135.876236,261.882690 141.173904,261.870819 146.471512,261.887207 
	C149.575974,261.896820 150.960510,260.394867 150.998978,257.280792 
	C151.036087,254.277817 149.940948,252.348923 146.779053,252.367447 
	C138.975815,252.413132 131.173416,252.600189 122.541748,253.025330 
M356.030273,279.856384 
	C356.031677,281.850433 356.115265,283.848572 356.016266,285.837616 
	C355.845642,289.265442 357.042999,291.113464 360.827148,291.141846 
	C364.737244,291.171112 365.968933,288.992676 365.518372,285.771545 
	C364.520782,278.638794 367.130890,272.865143 371.470764,267.508057 
	C373.239807,265.324371 374.529755,262.758331 376.227814,260.509888 
	C378.404510,257.627625 378.682983,255.243622 375.297760,253.026932 
	C371.689423,250.664169 369.863556,252.696671 368.142639,255.525696 
	C365.837494,259.315186 363.458252,263.059601 360.803284,267.316467 
	C357.934357,262.756927 355.429352,258.890961 353.046661,254.951019 
	C351.276428,252.023849 349.249725,251.044495 346.116547,253.156311 
	C342.958466,255.284927 343.273346,257.563477 345.181274,260.304504 
	C347.931396,264.255524 350.680603,268.218262 353.178680,272.328888 
	C354.418335,274.368805 355.097076,276.749573 356.030273,279.856384 
M161.565384,265.559814 
	C161.577301,272.522217 161.612961,279.484711 161.591003,286.447021 
	C161.580185,289.874207 163.353180,291.119324 166.605545,291.024017 
	C169.767426,290.931274 171.000290,289.371948 170.982468,286.319122 
	C170.926361,276.704498 170.878021,267.088165 171.008057,257.474945 
	C171.053116,254.143082 169.727203,252.508179 166.445984,252.395401 
	C162.820160,252.270782 161.382706,254.126938 161.552765,257.623413 
	C161.665375,259.938660 161.568527,262.264038 161.565384,265.559814 
M172.883453,306.874878 
	C168.711273,307.201019 168.261017,308.451050 170.325256,315.883972 
	C172.314529,314.627686 174.860245,313.880859 175.527969,312.327026 
	C176.066086,311.074738 174.335510,308.847565 172.883453,306.874878 
M191.236496,308.355621 
	C191.062302,309.843964 190.888107,311.332275 190.713913,312.820618 
	C190.324005,312.837738 189.934097,312.854858 189.544189,312.871979 
	C188.949677,310.821198 188.355179,308.770416 187.760666,306.719635 
	C187.269119,306.805115 186.777573,306.890625 186.286026,306.976105 
	C186.456024,309.120605 186.195755,311.441864 186.973923,313.336578 
	C187.375107,314.313416 190.728683,315.207428 190.863678,314.986664 
	C192.030609,313.078125 192.805130,310.919617 193.530609,308.779358 
	C193.568787,308.666748 192.106171,308.045471 191.236496,308.355621 
M137.207703,310.696686 
	C137.331161,312.090942 137.454636,313.485229 137.602768,315.158051 
	C139.408875,315.002594 140.751968,314.886963 141.079544,314.858765 
	C141.079544,311.954071 141.079544,309.569305 141.079544,306.791992 
	C139.538803,306.584656 136.908051,305.652466 137.207703,310.696686 
M153.208618,311.493652 
	C152.788391,315.702148 155.157089,315.494873 157.145691,314.941315 
	C157.145691,311.995300 157.145691,309.465973 157.145691,306.909027 
	C153.565308,306.732239 153.565308,306.732239 153.208618,311.493652 
M120.411613,306.851776 
	C120.808266,309.643829 121.204918,312.435852 121.601570,315.227905 
	C122.270668,315.219604 122.939774,315.211304 123.608871,315.203033 
	C124.717087,312.538605 125.825302,309.874176 126.933510,307.209778 
	C126.575066,307.009705 126.216614,306.809601 125.858162,306.609528 
	C124.836990,307.943909 123.815819,309.278259 122.675430,310.768402 
	C121.980217,309.348236 121.473862,308.313843 120.411613,306.851776 
z"/>
<path fill="#FBFDFE" opacity="1.000000" stroke="none" 
	d="
M130.999756,347.626465 
	C120.509552,347.514008 110.480568,347.915894 100.538429,347.166107 
	C86.336761,346.095093 75.335258,334.560944 75.159370,320.403992 
	C74.828262,293.753510 74.955276,267.095367 75.126266,240.441925 
	C75.170494,233.548019 78.113045,227.528961 82.908401,222.536148 
	C102.063087,202.592697 121.194618,182.626633 140.432709,162.763840 
	C150.864044,151.993774 165.178925,151.959549 175.871048,162.647827 
	C182.584671,169.359024 189.038437,176.329910 195.626511,183.167221 
	C196.725403,184.307678 197.914978,185.360748 199.852417,187.206619 
	C199.852417,181.237000 199.852417,176.313721 199.852417,171.390442 
	C199.852417,166.414932 199.852417,161.439423 199.852417,155.663055 
	C201.795776,156.176010 203.184479,156.365051 204.423569,156.900375 
	C209.764053,159.207596 214.989975,161.796005 220.398102,163.925140 
	C224.016891,165.349854 225.399338,167.466782 225.324387,171.438095 
	C225.085526,184.094620 225.058121,196.763046 225.380112,209.415894 
	C225.447800,212.075546 226.858643,215.065826 228.520340,217.238586 
	C231.337067,220.921600 234.885345,224.038834 238.054474,227.460236 
	C242.049240,231.772980 242.197968,237.356445 238.496017,240.789948 
	C234.862183,244.160263 229.806503,243.744583 225.648621,239.446259 
	C205.611954,218.732819 185.642487,197.954391 165.628510,177.218979 
	C159.264633,170.625717 156.975555,170.692291 150.666550,177.271423 
	C133.026413,195.666809 115.428581,214.103806 97.645073,232.359772 
	C94.011024,236.090393 92.342369,240.082092 92.369431,245.250229 
	C92.493294,268.905731 92.393227,292.562347 92.437691,316.218414 
	C92.456543,326.247070 96.378983,330.142883 106.332283,330.148163 
	C140.483795,330.166229 174.635315,330.141205 208.786758,330.188354 
	C211.088501,330.191528 213.492706,330.318054 215.669113,330.979736 
	C219.930618,332.275299 221.617554,335.597351 221.268875,339.874786 
	C220.930359,344.027496 218.612717,346.628693 214.434631,347.261292 
	C212.471603,347.558502 210.457138,347.610443 208.465851,347.612122 
	C182.810501,347.633911 157.155136,347.626495 130.999756,347.626465 
z"/>
<path fill="#FDFEFE" opacity="1.000000" stroke="none" 
	d="
M175.999359,241.169495 
	C159.365784,241.169342 143.231308,241.241562 127.099205,241.078049 
	C125.067299,241.057465 123.047951,239.796738 121.022781,239.110580 
	C121.771507,237.065552 122.005615,234.562851 123.351822,233.049225 
	C132.634125,222.612305 142.115860,212.351608 151.602158,202.097778 
	C156.344391,196.971832 160.876038,196.915024 165.607666,201.993668 
	C175.243576,212.336227 184.837326,222.720383 194.268661,233.248459 
	C195.521408,234.646881 196.645432,237.302628 196.131332,238.788803 
	C195.702316,240.029053 192.819672,240.944275 190.962769,241.064758 
	C186.159531,241.376434 181.322632,241.169403 175.999359,241.169495 
z"/>
<path fill="#F7FBFC" opacity="1.000000" stroke="none" 
	d="
M301.378723,286.330505 
	C301.375061,290.433502 299.075195,291.123505 296.032654,290.972107 
	C292.704620,290.806458 291.998047,288.750122 292.015289,285.889709 
	C292.070435,276.740479 291.886169,267.586426 292.152924,258.444672 
	C292.208801,256.530609 293.786438,253.079910 294.679993,253.074295 
	C297.146088,253.058777 300.345612,253.803513 301.948822,255.489624 
	C305.818695,259.559631 308.944366,264.337219 312.779144,269.365845 
	C316.360504,264.701202 319.880463,260.358032 323.118408,255.813950 
	C325.263031,252.804153 328.184326,251.367065 331.194214,253.062363 
	C332.731781,253.928391 333.615143,257.079987 333.683075,259.233582 
	C333.955475,267.875427 333.789093,276.531006 333.794098,285.181488 
	C333.796021,288.518555 333.119965,291.091187 328.871246,291.025146 
	C324.605042,290.958832 324.106659,288.360260 324.158722,285.021301 
	C324.233246,280.237671 324.177704,275.452057 324.177704,269.105072 
	C321.414429,272.821014 319.559937,275.419128 317.596436,277.932068 
	C314.227356,282.243896 311.467224,282.209747 308.031219,277.858276 
	C306.282349,275.643463 304.592651,273.381897 302.865295,271.149933 
	C302.788147,271.050232 302.602356,271.034607 301.389008,270.542969 
	C301.389008,275.906311 301.389008,280.901123 301.378723,286.330505 
z"/>
<path fill="#F7FBFC" opacity="1.000000" stroke="none" 
	d="
M189.821808,252.993118 
	C192.844574,256.492249 195.542831,259.849701 198.182388,263.252686 
	C200.681992,266.475281 203.119980,269.745697 206.757248,272.687775 
	C206.757248,267.646118 206.839981,262.602631 206.727371,257.563507 
	C206.655609,254.351685 207.731308,252.468048 211.227005,252.457840 
	C214.853500,252.447250 216.125946,254.194046 216.065536,257.749939 
	C215.910110,266.900238 216.167236,276.059570 215.890808,285.204163 
	C215.832947,287.118073 214.358963,290.436890 213.243347,290.566010 
	C211.005280,290.825043 207.812912,290.018433 206.351868,288.425171 
	C202.436523,284.155579 199.243103,279.226471 195.726196,274.587219 
	C194.780838,273.340179 193.704117,272.192719 191.762619,269.913605 
	C191.762619,275.986084 191.723022,280.726746 191.776382,285.466309 
	C191.812607,288.683319 191.077942,290.978027 187.152145,291.052307 
	C182.979736,291.131195 182.156693,288.787872 182.184341,285.308990 
	C182.254425,276.489410 182.172302,267.668762 182.216492,258.848877 
	C182.246292,252.900177 183.228989,252.132996 189.821808,252.993118 
z"/>
<path fill="#F5FAFB" opacity="1.000000" stroke="none" 
	d="
M249.922821,289.146454 
	C243.340149,289.850281 237.117035,290.615997 230.880066,290.753510 
	C229.701340,290.779480 227.460648,288.338440 227.419754,286.984161 
	C227.113800,276.853729 227.058258,266.703827 227.425156,256.578186 
	C227.478592,255.103531 229.986526,252.944885 231.724731,252.484406 
	C234.365982,251.784668 237.328339,252.249435 240.152969,252.297928 
	C250.497528,252.475479 258.086548,257.899170 260.419891,266.741119 
	C262.721405,275.462463 259.059723,283.495117 249.922821,289.146454 
M242.932480,261.966309 
	C241.014450,261.966309 239.096420,261.966309 237.083252,261.966309 
	C237.083252,268.697937 237.083252,274.902588 237.083252,281.058868 
	C244.554733,282.224487 249.507385,279.907043 251.057816,274.696838 
	C252.735275,269.059692 250.287872,264.808624 242.932480,261.966309 
z"/>
<path fill="#F6FAFC" opacity="1.000000" stroke="none" 
	d="
M122.956215,252.877869 
	C131.173416,252.600189 138.975815,252.413132 146.779053,252.367447 
	C149.940948,252.348923 151.036087,254.277817 150.998978,257.280792 
	C150.960510,260.394867 149.575974,261.896820 146.471512,261.887207 
	C141.173904,261.870819 135.876236,261.882690 130.383545,261.882690 
	C130.383545,263.774139 130.383545,265.185272 130.383545,267.025635 
	C134.048569,267.025635 137.519760,267.045654 140.990585,267.019531 
	C143.982101,266.997040 145.075821,268.625061 145.120911,271.419220 
	C145.166855,274.265411 144.477844,276.425262 141.115402,276.465149 
	C137.653748,276.506195 134.191223,276.474274 130.119232,276.474274 
	C130.119232,280.480072 130.541077,283.996246 129.922485,287.318665 
	C129.655487,288.752686 127.168327,290.827515 125.813339,290.738098 
	C124.118256,290.626251 121.187775,288.634918 121.142448,287.370605 
	C120.767303,276.907379 120.893852,266.424225 121.010216,255.948654 
	C121.021103,254.968658 122.008011,253.999512 122.956215,252.877869 
z"/>
<path fill="#F6FAFC" opacity="1.000000" stroke="none" 
	d="
M356.029938,279.416260 
	C355.097076,276.749573 354.418335,274.368805 353.178680,272.328888 
	C350.680603,268.218262 347.931396,264.255524 345.181274,260.304504 
	C343.273346,257.563477 342.958466,255.284927 346.116547,253.156311 
	C349.249725,251.044495 351.276428,252.023849 353.046661,254.951019 
	C355.429352,258.890961 357.934357,262.756927 360.803284,267.316467 
	C363.458252,263.059601 365.837494,259.315186 368.142639,255.525696 
	C369.863556,252.696671 371.689423,250.664169 375.297760,253.026932 
	C378.682983,255.243622 378.404510,257.627625 376.227814,260.509888 
	C374.529755,262.758331 373.239807,265.324371 371.470764,267.508057 
	C367.130890,272.865143 364.520782,278.638794 365.518372,285.771545 
	C365.968933,288.992676 364.737244,291.171112 360.827148,291.141846 
	C357.042999,291.113464 355.845642,289.265442 356.016266,285.837616 
	C356.115265,283.848572 356.031677,281.850433 356.029938,279.416260 
z"/>
<path fill="#FAFDFD" opacity="1.000000" stroke="none" 
	d="
M161.565430,265.072357 
	C161.568527,262.264038 161.665375,259.938660 161.552765,257.623413 
	C161.382706,254.126938 162.820160,252.270782 166.445984,252.395401 
	C169.727203,252.508179 171.053116,254.143082 171.008057,257.474945 
	C170.878021,267.088165 170.926361,276.704498 170.982468,286.319122 
	C171.000290,289.371948 169.767426,290.931274 166.605545,291.024017 
	C163.353180,291.119324 161.580185,289.874207 161.591003,286.447021 
	C161.612961,279.484711 161.577301,272.522217 161.565430,265.072357 
z"/>
<path fill="#D6E9F0" opacity="1.000000" stroke="none" 
	d="
M173.247467,306.963898 
	C174.335510,308.847565 176.066086,311.074738 175.527969,312.327026 
	C174.860245,313.880859 172.314529,314.627686 170.325256,315.883972 
	C168.261017,308.451050 168.711273,307.201019 173.247467,306.963898 
z"/>
<path fill="#BBDAE5" opacity="1.000000" stroke="none" 
	d="
M191.289368,308.008301 
	C192.106171,308.045471 193.568787,308.666748 193.530609,308.779358 
	C192.805130,310.919617 192.030609,313.078125 190.863678,314.986664 
	C190.728683,315.207428 187.375107,314.313416 186.973923,313.336578 
	C186.195755,311.441864 186.456024,309.120605 186.286026,306.976105 
	C186.777573,306.890625 187.269119,306.805115 187.760666,306.719635 
	C188.355179,308.770416 188.949677,310.821198 189.544189,312.871979 
	C189.934097,312.854858 190.324005,312.837738 190.713913,312.820618 
	C190.888107,311.332275 191.062302,309.843964 191.289368,308.008301 
z"/>
<path fill="#D0E6EE" opacity="1.000000" stroke="none" 
	d="
M137.208344,310.293579 
	C136.908051,305.652466 139.538803,306.584656 141.079544,306.791992 
	C141.079544,309.569305 141.079544,311.954071 141.079544,314.858765 
	C140.751968,314.886963 139.408875,315.002594 137.602768,315.158051 
	C137.454636,313.485229 137.331161,312.090942 137.208344,310.293579 
z"/>
<path fill="#D0E6EE" opacity="1.000000" stroke="none" 
	d="
M153.208176,311.091064 
	C153.565308,306.732239 153.565308,306.732239 157.145691,306.909027 
	C157.145691,309.465973 157.145691,311.995300 157.145691,314.941315 
	C155.157089,315.494873 152.788391,315.702148 153.208176,311.091064 
z"/>
<path fill="#D6E9F0" opacity="1.000000" stroke="none" 
	d="
M120.689560,307.065613 
	C121.473862,308.313843 121.980217,309.348236 122.675430,310.768402 
	C123.815819,309.278259 124.836990,307.943909 125.858162,306.609528 
	C126.216614,306.809601 126.575066,307.009705 126.933510,307.209778 
	C125.825302,309.874176 124.717087,312.538605 123.608871,315.203033 
	C122.939774,315.211304 122.270668,315.219604 121.601570,315.227905 
	C121.204918,312.435852 120.808266,309.643829 120.689560,307.065613 
z"/>
<path fill="#107DA5" opacity="1.000000" stroke="none" 
	d="
M243.357269,262.012634 
	C250.287872,264.808624 252.735275,269.059692 251.057816,274.696838 
	C249.507385,279.907043 244.554733,282.224487 237.083252,281.058868 
	C237.083252,274.902588 237.083252,268.697937 237.083252,261.966309 
	C239.096420,261.966309 241.014450,261.966309 243.357269,262.012634 
z"/>
</svg>